<svg width="32" height="32" viewBox="0 0 32 32" xmlns="http://www.w3.org/2000/svg">
  <defs>
    <linearGradient id="g" x1="0" y1="0" x2="1" y2="1">
      <stop offset="0" stop-color="#a78bfa"/>
      <stop offset="1" stop-color="#7c3aed"/>
    </linearGradient>
  </defs>
  <path fill="url(#g)" d="M16 2C9.4 2 4 7.4 4 14v13.2c0 .9 1.05 1.4 1.74.78l2.1-1.9 2.32 2.1c.46.42 1.17.42 1.63 0l2.31-2.1 2.3 2.1c.46.42 1.17.42 1.63 0l2.3-2.1 2.32 2.1c.7.62 1.74.12 1.74-.78V14c0-6.6-5.4-12-12-12z"/>
  <circle cx="12" cy="13" r="1.6" fill="#0a0a0f"/>
  <circle cx="20" cy="13" r="1.6" fill="#0a0a0f"/>
</svg>
